# xmcd
#
# Track frame offsets: 
#        150
#        10300
#        24253
#        35706
#        45922
#        57299
#        68242
#        80501
#        90719
#        102310
#        114870
#        126037
#        136558
#        146759
#        157272
#        167841
#        178311
#        190319
#        202722
#        211960
#        224607
#        237617
#        249762
#        260602
#        270176
#        282592
#
# Disc length: 3935 seconds
#
# Revision: 0
# Processed by: cddbd v1.5.2PL0 Copyright (c) Steve Scherf et al.
# Submitted via: ExactAudioCopy v0.95b3
#
DISCID=770f5d1a
DTITLE=Va  - You Heard It Here First  FLAC
DYEAR=1900
DGENRE=
TTITLE0=Gloria Jones - Tainted Love
TTITLE1=Mark James - Suspicious Minds
TTITLE2=Wild Ones - Wild Thing
TTITLE3=Crisckets - I Fought The Law
TTITLE4=Howlin' Wolf - The Red Rooster
TTITLE5=Raindrops - Hanky Panky
TTITLE6=Bessie Banks - Go Now
TTITLE7=Priscilla Bowman and Spaniels - A Rockin' Good Way
TTITLE8=Sammy Ambrose - This Diamond Ring
TTITLE9=John D. Loudermilk - Tobacco Road
TTITLE10=Yvonne Fair - I Found You
TTITLE11=Eddie Riff - Ain't That Loving You Baby
TTITLE12=Richard Berry and The Pharohs - Louie Louie
TTITLE13=Barbie Gaye - My Boy Lollipop
TTITLE14=Little Darlings - Little Bit O'Soul
TTITLE15=Johnny Darrell - Ruby, Don't Take Your Love To Town
TTITLE16=Hoagy Lands - Baby Let Me Hold Your Hand
TTITLE17=Muddy Waters - You Need Love
TTITLE18=Diane and Annita - A Groovy Kind Of Love
TTITLE19=Ian and Sylvia - You Were On My Mind
TTITLE20=Tommy Hunt - I Just Don't Know What To Do With Myself
TTITLE21=Kingston Trio - Let's Get Together (Live)
TTITLE22=Joe Jones - California Sun
TTITLE23=Carson and Gaile - Something Stupid
TTITLE24=Leaves - Hey Joe, Where You Gonna Go
TTITLE25=Sunny Dae and The Knights - Rock Around The Clock
EXTD=
EXTT0=
EXTT1=
EXTT2=
EXTT3=
EXTT4=
EXTT5=
EXTT6=
EXTT7=
EXTT8=
EXTT9=
EXTT10=
EXTT11=
EXTT12=
EXTT13=
EXTT14=
EXTT15=
EXTT16=
EXTT17=
EXTT18=
EXTT19=
EXTT20=
EXTT21=
EXTT22=
EXTT23=
EXTT24=
EXTT25=
PLAYORDER=
